<svg width="21" height="22" viewBox="0 0 21 22" fill="none" xmlns="http://www.w3.org/2000/svg">
<path d="M1.5 7.8C1.5 6.11984 1.5 5.27976 1.82698 4.63803C2.1146 4.07354 2.57354 3.6146 3.13803 3.32698C3.77976 3 4.61984 3 6.3 3H14.7C16.3802 3 17.2202 3 17.862 3.32698C18.4265 3.6146 18.8854 4.07354 19.173 4.63803C19.5 5.27976 19.5 6.11984 19.5 7.8V16.2C19.5 17.8802 19.5 18.7202 19.173 19.362C18.8854 19.9265 18.4265 20.3854 17.862 20.673C17.2202 21 16.3802 21 14.7 21H6.3C4.61984 21 3.77976 21 3.13803 20.673C2.57354 20.3854 2.1146 19.9265 1.82698 19.362C1.5 18.7202 1.5 17.8802 1.5 16.2V7.8Z" fill="#ECF6F6"/>
<path d="M19.5 9H1.5M14.5 1V5M6.5 1V5M6.3 21H14.7C16.3802 21 17.2202 21 17.862 20.673C18.4265 20.3854 18.8854 19.9265 19.173 19.362C19.5 18.7202 19.5 17.8802 19.5 16.2V7.8C19.5 6.11984 19.5 5.27976 19.173 4.63803C18.8854 4.07354 18.4265 3.6146 17.862 3.32698C17.2202 3 16.3802 3 14.7 3H6.3C4.61984 3 3.77976 3 3.13803 3.32698C2.57354 3.6146 2.1146 4.07354 1.82698 4.63803C1.5 5.27976 1.5 6.11984 1.5 7.8V16.2C1.5 17.8802 1.5 18.7202 1.82698 19.362C2.1146 19.9265 2.57354 20.3854 3.13803 20.673C3.77976 21 4.61984 21 6.3 21Z" stroke="#808489" stroke-width="1.5" stroke-linecap="round" stroke-linejoin="round"/>
</svg>
