<svg width="25" height="24" viewBox="0 0 25 24" fill="none" xmlns="http://www.w3.org/2000/svg">
<g clip-path="url(#clip0_1403_1521)">
<path d="M17 3.25H19.5M17 5H21M17 8V9.16775C17 9.43418 17 9.56739 17.0546 9.63581C17.1021 9.69531 17.1741 9.72993 17.2503 9.72984C17.3378 9.72975 17.4418 9.64653 17.6499 9.4801L18.8426 8.52592C19.0863 8.33099 19.2081 8.23353 19.3437 8.16423C19.4641 8.10274 19.5922 8.0578 19.7246 8.03063C19.8738 8 20.0298 8 20.3419 8H21.6C22.4401 8 22.8601 8 23.181 7.83651C23.4632 7.6927 23.6927 7.46323 23.8365 7.18099C24 6.86012 24 6.44008 24 5.6V2.9C24 2.05992 24 1.63988 23.8365 1.31901C23.6927 1.03677 23.4632 0.8073 23.181 0.66349C22.8601 0.5 22.4401 0.5 21.6 0.5H17.4C16.5599 0.5 16.1399 0.5 15.819 0.66349C15.5368 0.8073 15.3073 1.03677 15.1635 1.31901C15 1.63988 15 2.05992 15 2.9V6C15 6.46499 15 6.69748 15.0511 6.88823C15.1898 7.40587 15.5941 7.81019 16.1118 7.94889C16.3025 8 16.535 8 17 8Z" stroke="#808489" stroke-linecap="round" stroke-linejoin="round"/>
</g>
<g clip-path="url(#clip1_1403_1521)">
<path d="M4.25487 6.0294H2.36271C2.11179 6.0294 1.87115 6.12908 1.69373 6.3065C1.5163 6.48393 1.41663 6.72457 1.41663 6.97548V10.2868C1.41663 11.6668 1.96484 12.9903 2.94068 13.9662C3.91651 14.942 5.24003 15.4902 6.62007 15.4902C8.00011 15.4902 9.32363 14.942 10.2995 13.9662C11.2753 12.9903 11.8235 11.6668 11.8235 10.2868V6.97548C11.8235 6.72457 11.7238 6.48393 11.5464 6.3065C11.369 6.12908 11.1284 6.0294 10.8774 6.0294H8.98527" stroke="#808489" stroke-width="1.5" stroke-linecap="round" stroke-linejoin="round"/>
<path d="M15.6079 17.3824V18.565C15.6079 19.1551 15.4916 19.7395 15.2658 20.2847C15.0399 20.8299 14.7089 21.3253 14.2916 21.7426C13.8743 22.1599 13.3789 22.4909 12.8337 22.7168C12.2885 22.9426 11.7041 23.0589 11.114 23.0589C10.5238 23.0589 9.93946 22.9426 9.39423 22.7168C8.84901 22.4909 8.35361 22.1599 7.93631 21.7426C7.51902 21.3253 7.188 20.8299 6.96216 20.2847C6.73632 19.7395 6.62008 19.1551 6.62008 18.565V15.4902M8.98529 5.08333V6.97549M4.25488 5.08333V6.97549" stroke="#808489" stroke-width="1.5" stroke-linecap="round" stroke-linejoin="round"/>
<path d="M17.5 15.4902C17.5 15.992 17.3007 16.4733 16.9458 16.8282C16.591 17.183 16.1097 17.3824 15.6079 17.3824C15.106 17.3824 14.6247 17.183 14.2699 16.8282C13.9151 16.4733 13.7157 15.992 13.7157 15.4902C13.7157 14.9884 13.9151 14.5071 14.2699 14.1523C14.6247 13.7974 15.106 13.5981 15.6079 13.5981C16.1097 13.5981 16.591 13.7974 16.9458 14.1523C17.3007 14.5071 17.5 14.9884 17.5 15.4902Z" stroke="#808489" stroke-width="1.5" stroke-linecap="round" stroke-linejoin="round"/>
</g>
<defs>
<clipPath id="clip0_1403_1521">
<rect width="12" height="12" fill="white" transform="translate(12.5)"/>
</clipPath>
<clipPath id="clip1_1403_1521">
<rect width="20" height="20" fill="white" transform="translate(0.5 4)"/>
</clipPath>
</defs>
</svg>
