<svg width="25" height="24" viewBox="0 0 25 24" fill="none" xmlns="http://www.w3.org/2000/svg">
<g clip-path="url(#clip0_1403_1516)">
<path d="M22.3158 20.5263V21.0263H22.8158H23.8684C23.9033 21.0263 23.9368 21.0402 23.9615 21.0649C23.9861 21.0895 24 21.123 24 21.1579C24 21.1928 23.9861 21.2263 23.9615 21.2509C23.9368 21.2756 23.9033 21.2895 23.8684 21.2895H1.13158C1.09668 21.2895 1.06322 21.2756 1.03854 21.2509L0.684985 21.6045L1.03854 21.2509C1.01386 21.2263 1 21.1928 1 21.1579C1 21.123 1.01386 21.0895 1.03854 21.0649C1.06321 21.0402 1.09668 21.0263 1.13158 21.0263H2.18421H2.68421V20.5263V3.47368C2.68421 3.21545 2.78679 2.96779 2.9694 2.78519C3.152 2.60258 3.39966 2.5 3.65789 2.5H13.7632C14.0214 2.5 14.2691 2.60258 14.4517 2.78519L14.8052 2.43163L14.4517 2.78519C14.6343 2.96779 14.7368 3.21545 14.7368 3.47368V10.4211V10.9211H15.2368H21.3421C21.6003 10.9211 21.848 11.0236 22.0306 11.2062C22.2132 11.3888 22.3158 11.6365 22.3158 11.8947V20.5263ZM21.8445 11.3923L21.491 11.7459L21.8445 11.3923C21.7113 11.2591 21.5305 11.1842 21.3421 11.1842H15.2368H14.7368V11.6842V20.5263V21.0263H15.2368H21.5526H22.0526V20.5263V11.8947C22.0526 11.7063 21.9778 11.5256 21.8445 11.3923ZM14.2656 2.97127L13.912 3.32482L14.2656 2.97127C14.1323 2.83802 13.9516 2.76316 13.7632 2.76316H3.65789C3.46945 2.76316 3.28873 2.83802 3.15548 2.97127C3.02223 3.10452 2.94737 3.28524 2.94737 3.47368V20.5263V21.0263H3.44737H5.55263H6.05263V20.5263V15.2632C6.05263 15.2283 6.06649 15.1948 6.09117 15.1701C6.11585 15.1454 6.14931 15.1316 6.18421 15.1316H11.2368C11.2717 15.1316 11.3052 15.1454 11.3299 15.1701C11.3546 15.1948 11.3684 15.2283 11.3684 15.2632V20.5263V21.0263H11.8684H13.9737H14.4737V20.5263V3.47368C14.4737 3.28524 14.3988 3.10452 14.2656 2.97127ZM10.6053 21.0263H11.1053V20.5263V15.8947V15.3947H10.6053H6.81579H6.31579V15.8947V20.5263V21.0263H6.81579H10.6053ZM8.07895 8.39474H8.57895V7.89474V6C8.57895 5.9651 8.59281 5.93164 8.61749 5.90696C8.64216 5.88228 8.67563 5.86842 8.71053 5.86842C8.74542 5.86842 8.77889 5.88228 8.80357 5.90696C8.82824 5.93164 8.8421 5.9651 8.8421 6V7.89474V8.39474H9.3421H11.2368C11.2717 8.39474 11.3052 8.4086 11.3299 8.43328C11.3546 8.45795 11.3684 8.49142 11.3684 8.52632C11.3684 8.56121 11.3546 8.59468 11.3299 8.61936C11.3052 8.64403 11.2717 8.65789 11.2368 8.65789H9.3421H8.8421V9.15789V11.0526C8.8421 11.0875 8.82824 11.121 8.80357 11.1457L9.15712 11.4992L8.80357 11.1457C8.77889 11.1703 8.74542 11.1842 8.71053 11.1842C8.67563 11.1842 8.64216 11.1703 8.61749 11.1457C8.59281 11.121 8.57895 11.0875 8.57895 11.0526V9.15789V8.65789H8.07895H6.18421C6.14931 8.65789 6.11585 8.64403 6.09117 8.61936C6.06649 8.59468 6.05263 8.56121 6.05263 8.52632C6.05263 8.49142 6.06649 8.45795 6.09117 8.43328C6.11585 8.4086 6.14931 8.39474 6.18421 8.39474H8.07895Z" fill="#0C5F5C" stroke="#808489"/>
</g>
<defs>
<clipPath id="clip0_1403_1516">
<rect width="24" height="24" fill="white" transform="translate(0.5)"/>
</clipPath>
</defs>
</svg>
